<svg width="1024" height="1024" viewBox="0 0 1024 1024" fill="none" xmlns="http://www.w3.org/2000/svg">
<path d="M472.019 69.7183C477.655 69.311 485.647 69.4715 491.394 69.4681C523.164 69.3494 554.856 72.6245 585.931 79.2377C676.849 98.3695 759.472 145.552 822.151 214.135C834.963 228.209 849.873 246.345 860.177 262.429C836.655 286.221 811.812 312.943 787.729 335.889C760.994 336.571 728.949 335.972 702.12 335.604C702.029 365.405 702.491 394.919 702.059 424.794C694.785 433.168 680.735 446.276 672.4 454.676C653.006 474.437 633.479 494.066 613.818 513.562C621.518 521.658 630.414 530.197 638.379 538.185L702.222 602.127C702.441 631.82 702.404 661.514 702.112 691.206C729.312 691.872 760.009 691.088 787.473 691.054C806.259 709.741 824.517 729.037 843.395 747.647C849.128 753.298 854.937 759.204 860.335 765.166C808.404 839.598 735.36 896.761 650.628 929.28C607.925 946.415 557.158 955.938 511.403 958.141C392.51 964.155 276.101 922.674 187.803 842.831C101.571 764.589 50.0592 655.219 44.658 538.907C39.0219 418.142 76.7294 304.724 158.59 214.865C240.629 124.809 350.741 75.2304 472.019 69.7183Z" fill="url(#paint0_radial_3_2)"/>
<path d="M539.425 380.983C539.903 381.85 539.607 446.547 539.61 454.994L614.303 455.031C596.543 474.12 575.035 494.956 556.451 513.408C561.945 519.573 569.267 526.593 575.155 532.533C588.406 545.777 601.575 559.102 614.662 572.509L539.845 572.499C539.849 596.959 539.432 622.141 539.932 646.533C534.149 641.277 526.525 632.9 520.885 627.119L487.479 593.163L435.618 646.039C435.21 645.551 435.49 579.197 435.494 572.499L360.86 572.548C365.603 567.155 371.879 561.538 376.937 556.228C390.398 542.1 405.992 527.769 418.957 513.334C404.451 499.221 390.455 484.408 375.955 470.266C371.078 465.51 365.146 459.902 361.001 454.602C367.902 455.408 380.913 455.057 388.347 455.05L435.716 454.99C435.801 439.829 435.794 424.667 435.693 409.506C435.63 400.485 435.78 389.75 435.174 380.915C440.879 385.662 450.65 396.31 456.183 401.982C466.521 412.53 476.96 422.979 487.499 433.327C505.08 416.226 522.108 397.612 539.425 380.983Z" fill="white"/>
<path d="M487.545 461.003C502.282 470.558 517.787 479.147 532.611 488.497C533.102 504.483 532.827 522.686 532.825 538.742C519.402 548.081 502.311 557.336 488.253 566.151C487.948 566.188 487.642 566.226 487.336 566.263C474.46 558.491 455.006 546.368 442.998 538.718C443.217 521.769 443.218 504.818 443 487.869C457.995 479.158 472.845 470.202 487.545 461.003Z" fill="#080034"/>
<path d="M210.016 546.802C211.688 547.589 268.157 604.925 272.77 609.616L272.953 691.44C246.973 691.036 220.393 691.259 194.375 691.271L156.978 691.359C145.446 668.757 138.814 651.267 130.804 627.465C156.547 600.29 184.034 574.169 210.016 546.802Z" fill="white"/>
<path d="M237.13 335.754L272.991 335.708C272.794 362.927 272.759 390.148 272.885 417.368C252.451 438.557 230.482 458.958 210.248 480.465C204.745 473.859 195.389 464.741 189.169 458.358C170.814 439.664 148.339 418.634 131.027 399.672C139.805 374.471 145.602 360.123 157.514 335.914C183.894 335.592 210.722 335.796 237.13 335.754Z" fill="white"/>
<path d="M651.786 738.245L656.011 738.342C656.009 775.862 655.659 813.984 656.132 851.453C635.221 861.09 618.628 867.518 596.807 874.085C593.503 870.171 588.162 865.044 584.407 861.255L561.774 838.511C548.108 824.574 534.368 810.709 520.555 796.918C540.027 777.563 559.322 758.032 578.439 738.326C602.624 738.714 627.558 738.375 651.786 738.245Z" fill="white"/>
<path d="M319.355 738.242C344.77 738.846 371.635 738.455 397.163 738.451C414.62 757.423 436.254 778.027 454.75 796.554C451.412 800.569 445.686 806.175 441.943 810.023L416.545 835.771L378.977 873.749C371.917 871.079 364.282 868.804 357.073 866.108C344.147 861.268 331.495 855.727 319.173 849.508C318.629 823.912 319.432 797.499 319.032 771.808C318.96 767.19 318.765 740.71 319.355 738.242Z" fill="white"/>
<path d="M596.629 153.38C611.132 156.048 642.906 169.105 656.085 175.772C655.445 212.821 656.01 251.501 656.042 288.672L580.375 288.647C580.088 288.642 578.416 288.369 578.385 288.338C562.369 272.637 535.867 245.156 520.674 230.727C545.415 204.911 572.315 179.952 596.629 153.38Z" fill="white"/>
<path d="M378.231 154.04C379.64 154.134 447.623 223.293 454.736 230.514L396.964 288.557L319.017 288.637L319.225 177.738C341.841 167.589 354.676 161.957 378.231 154.04Z" fill="white"/>
<path d="M301.969 453.292C303.435 454.169 316.949 468.116 318.993 470.179L362.106 513.263C358.156 517.923 350.808 524.631 346.29 529.355C332.268 544.016 316.507 558.432 302.847 573.334C301.436 572.948 291.188 562.039 289.408 560.247C273.862 544.534 258.196 528.939 242.413 513.464C254.003 502.221 265.488 490.871 276.869 479.416C284.98 471.296 294.578 461.884 301.969 453.292Z" fill="white"/>
<path d="M487.005 263.082C488.996 263.82 537.346 313.335 543.22 319.069C539.615 323.532 531.94 330.831 527.759 335.204C514.86 348.695 501.104 361.614 488.262 375.165C488.231 375.172 488.201 375.192 488.169 375.187C486.255 374.915 437.77 325.103 432.069 319.298C443.539 307.955 454.928 296.53 466.235 285.025C471.758 279.432 482.607 268.873 487.005 263.082Z" fill="white"/>
<path d="M487.78 651.44C492.79 657.478 503.605 667.879 509.369 673.671L543.044 707.745C538.205 713.372 532.281 718.847 527.131 724.246C514.407 737.583 500.26 750.708 487.859 764.249C486.473 763.286 475.516 751.885 473.504 749.868L432.182 708.203C449.947 690.175 470.943 669.908 487.78 651.44Z" fill="white"/>
<path d="M577.772 335.564C603.865 335.757 629.96 335.77 656.054 335.604L655.988 415.42L577.953 415.445L577.772 335.564Z" fill="white"/>
<path d="M577.939 611.535C603.776 611.894 630.184 611.629 656.045 611.568L656.082 691.31L577.965 691.474L577.939 611.535Z" fill="white"/>
<path d="M319.054 335.714C344.812 336.413 371.304 335.388 397.149 335.737L397.055 415.516L319.028 415.445C319.002 389.087 318.648 362.003 319.054 335.714Z" fill="white"/>
<path d="M318.999 611.575C345.001 611.743 371.004 611.77 397.007 611.657L396.947 691.449C371.141 691.125 344.776 691.342 318.94 691.396L318.999 611.575Z" fill="white"/>
<path d="M702.085 738.293C721.211 738.092 740.977 738.364 760.137 738.478C766.471 745.194 772.501 751.614 779.435 757.722C767.499 771.025 757.985 781.277 744.8 793.434C729.645 806.795 718.61 815.719 702.131 826.861C702.38 797.339 702.365 767.815 702.085 738.293Z" fill="white"/>
<path d="M701.927 200.845C705.618 203.011 713.155 208.834 716.669 211.474C739.585 228.658 760.569 248.278 779.25 269.992L770.3 278.964L760.774 288.604C742.218 289.124 720.804 288.67 702.086 288.649C702.193 259.381 702.14 230.112 701.927 200.845Z" fill="white"/>
<path d="M184.903 738.397C213.661 738.959 244.018 738.394 272.899 738.438C272.517 766.283 272.899 794.882 272.967 822.765C270.55 821.344 262.664 815.446 260.32 813.616C233.709 792.842 204.7 765.816 184.903 738.397Z" fill="white"/>
<path d="M272.4 204.933C272.572 205.2 272.744 205.467 272.915 205.734C272.816 229.955 272.714 265.604 272.925 288.666L187.09 288.551L186.854 288.311L186.907 287.488C206.491 260.61 244.888 223.799 272.4 204.933Z" fill="white"/>
<path d="M118.794 453.294C122.8 456.584 132.67 467.175 136.787 471.331C150.638 485.294 164.408 499.337 178.095 513.462C170.253 522.477 155.525 536.519 146.735 545.357C137.314 554.511 128.044 563.817 118.928 573.274C113.843 543.434 113.629 510.832 115.763 480.7C116.409 471.582 117.921 462.434 118.794 453.294Z" fill="white"/>
<path d="M486.977 829.246C488.408 829.836 538.767 880.697 544.316 886.401C537.63 886.725 528.762 887.957 521.86 888.573C511.187 889.468 500.484 889.945 489.774 890.002C469.264 890.164 451.75 888.391 431.618 885.914C443.91 872.659 458.571 859.64 471.064 846.271C476.378 840.583 482.057 835.413 486.977 829.246Z" fill="white"/>
<path d="M483.594 138.262C500.424 137.839 527.162 138.775 543.804 141.722C526.162 159.122 506.499 178.741 489.482 196.667C488.575 197.633 488.9 197.352 487.769 198.029C486.054 197.266 436.418 146.659 431.844 141.643C438.42 141.478 447.855 140.278 454.6 139.695C464.242 138.839 473.914 138.361 483.594 138.262Z" fill="white"/>
<defs>
<radialGradient id="paint0_radial_3_2" cx="0" cy="0" r="1" gradientUnits="userSpaceOnUse" gradientTransform="translate(452.222 514.077) rotate(90) scale(444.637 444.637)">
<stop stop-color="#3958FC"/>
<stop offset="1" stop-color="#941CFA"/>
</radialGradient>
</defs>
</svg>
